<svg xmlns="http://www.w3.org/2000/svg" width="950" height="950" viewBox="0 0 950 950">
  <defs>
    <style>
      .cls-1 {
        fill: #ffba00;
        fill-rule: evenodd;
      }
    </style>
  </defs>
  <path id="Color_Fill_1" data-name="Color Fill 1" class="cls-1" d="M29,470c-1.674-92.927,29.509-163.144,62-223L476,468v2H29ZM67,342l-1,5,4,2-5,15,4,3,2-1,4-16c4.823,0.221,5.3,1.789,6-4Zm22,0,2,5,7,1,2-2Zm1,7L76,368v1l4,1c8.024-4.135,8.777,1.782,17,5C96.376,365.705,97.633,352.051,90,349Zm17,5-7,22,4,2,2-1,3-12h1c0.821,7.576,2.281,14.748,9,17l6-22-1-1h-4l-4,12h-1c-0.379-6.018-1.881-12.574-5-16Zm26,10-8,7c-0.332,7.792.5,11.112,5,14l10,3c4.243-3.021,6.365-4.279,9-9v-1l-13-4-1,3,6,4v1h-2l-5,1-4-4v-5l4-5c8.467,0.748,7.986,4.027,15,6-1.146-5.848-3.087-7.974-8-10Zm30,8q-0.5,2.5-1,5l4,1q-2.5,8.5-5,17l4,2h1c2.436-11.632,6.949-13.851,11-20v-1Zm-80,2-1,5h3l2-4Zm97,3-7,22h2l4,1q1-4,2-8l7,1,1,2-3,8,6,1,6-22-4-1-3,8c-8.909-1.187-7.738-3.367-6-11Zm28,2-4,2v1h5l6,3-1-3C211.433,379.908,212.474,379.939,208,379Zm-5,5-7,21,12,5q0.5-2.5,1-5l-7-2q0.5-2,1-4l6,2,3-5c-3.807-.656-4.838-1.05-7-3l1-2,8,1q0.5-2,1-4h-2Zm16,5-7,21,5,3q2-7.5,4-15h1c-0.621,7.642-1.456,14.712,4,17,1.619-4.422,4.26-8.625,8-11l-4,13h2l3,1,7-21-6-3-3,2-6,11h-1c0.386-6.768,1-13.316-3-16Zm37,12-5,12h2l8,2v1l-1,4-11-4c0.644,3.635.4,3.027,2,5l3,4c7.341-.007,8.118-1.254,12-4l1-2-1-3c-1.824-5.6-3.459-4.508-8-7,5.65-4.821,6.571,1.988,11-5Zm18,6c-1.945,4.16-2.041,5.83,0,10h8l-10,13h3l2-1,14-18-2-1-7,6c0.2-5.36.279-4.919-2-9h-6Zm10,16-3,3c0.266,5.288-.232,4.821,3,7h6l2-3-1-5-3-1Z"/>
</svg>
