<svg xmlns="http://www.w3.org/2000/svg" width="402" height="392" viewBox="0 0 402 392">
  <defs>
    <style>
      .cls-1 {
        fill: #036;
        fill-rule: evenodd;
      }
    </style>
  </defs>
  <path id="Color_Fill_1" data-name="Color Fill 1" class="cls-1" d="M169,0c11.7,6.693,43.295,76.478,53,93L338,302c9.915,16.9,44.551,66.772,45,83L129,239,0,164C27.143,113.131,70.792,67.149,116,34ZM134,83L119,99l3,4,10-9-6,14,2,1,10-5c-2.493,6.68-7.294,6.688-3,12l2-2,15-13-5-6c-4.462,2.274-9.092,4.947-13,5l6-11ZM85,92c-1.619,4.117-6.114,8.507-6,13l4-4,6-5Zm69,12-16,15,4,4,16-15q-1-2-2-4h-2Zm-60,1c-1,4.943.689,6.577-3,9-0.024-3.062.962-1.4-1-4l-2,2c1.373,3.595.9,3.172,4,5,2.867,0.753,2.686-.016,6-1-1.416,3.571-1.539,3.843-1,8l3,1,3,1,8-7-2-3-8,7-2-2,7-8-2-2-4,3v-8Zm76,0q1,2.5,2,5c-12.476-2.242-18.008,9.375-27,16l8,8q0.5,1,1,2l3-2v-1l-4-6,2-2c4.648,2.3,2.838,3.983,7,2l2-1-4-5,2-2c4.181,3.407,5.6,5.814,8-1,1.8-1.684,2.032-3.425,3-6l5,2C176.787,108.849,175.043,106.453,170,105Zm-54,16q0.5,1.5,1,3l-14,5q0.5,1,1,2c6.3,1.528,4.862,3.185,7,7l2-1,4-13,3,2v-5h-4Zm6,2q-0.5,1-1,2l5,1v-1Zm50,0q-7.5,7.5-15,15l4,4,7-7,2,2c-2.309,5.7-4.031,11.018,0,15l17-15-4-4-10,8,4-14Zm-52,7c-0.177,5.4-1.411,6.727-6,10l2,2c5.261-2.842,4.954-4.787,11-5C125.713,132.1,124.881,131.311,120,130Zm11,13-5,3q-0.5,3-1,6l4,5h6v-1l-7-4v-3l4-3,3,1,3,6h1v-5l-3-4Zm64,4q-7.5,7.5-15,15l4,4,5-4c3.379,2.656,5.714,5.986,11,4,4.13-1.819,6.229-5.036,4-10A16.549,16.549,0,0,0,195,147Zm-53,5c-3.081,3.962-6.269,5.482-8,11l7-2q0.5,1,1,2l-3,4c4.1,4.1,8.23,8.016,12,12h1c1.681-6.645,3.552-12.255,9-13l-5-5q0.5,2,1,4l-14,4,7-9-2-2c-4.285,2.075-2.295,3.447-6,0C144.074,153.715,145.447,155.705,142,152Zm67,10q-7.5,7.5-15,15l4,4,8-5,3,4-6,8,4,3,16-16-3-4-8,5-4-4,6-6v-1q-0.5-1-1-2Zm-48,10-8,9q0.5,1,1,2l5-2c-1.148,3.1-1.407,2.972-1,6l5-1c-1.231,3.014-1.3,1.83-1,5l10-9-2-3h-1l-8,4,4-8Zm68,3v4c-6.481.732-14.635,9.928-19,16l4,3c6.976-5.157,12.283-11.476,17-19l4,2q1-2,2-4Zm-54,14q-1,3.5-2,7c-2.854-1.3-.6-1.508-4-1,1.311,7.825,3.806,5.687,9,7-0.248,4.192.612,5.385,3,9l9-1c-2.26,4.9-2.708,8.031,2,11l6,1v-1l-7-4v-3l4-3,3,1c0.841,2.581,1.526,5.236,3,7q0.5-1,1-2c-0.811-6.555-2.086-6.779-7-9l-5,2V199h4l-2-2c-4.212.624-4.81,0.476-12,1,1.54-5.366,1.762-4.468-1-9h-4Zm33,33-8,8,5,6h1l7-1c1.3-2.981,2.3-4.629,1-8C212.236,223.238,212.39,223.271,208,222Zm13,12c-5.949,3.322-10.9,2.741-10,8,4.2,0.815,3.637,3.044,7,7l1-1q2.5-5.5,5-11Z"/>
</svg>
